<?xml version="1.0" encoding="UTF-8" standalone="no"?>
<!-- Created with Inkscape (http://www.inkscape.org/) -->

<svg
   xmlns:dc="http://purl.org/dc/elements/1.1/"
   xmlns:cc="http://creativecommons.org/ns#"
   xmlns:rdf="http://www.w3.org/1999/02/22-rdf-syntax-ns#"
   xmlns:svg="http://www.w3.org/2000/svg"
   xmlns="http://www.w3.org/2000/svg"
   xmlns:sodipodi="http://sodipodi.sourceforge.net/DTD/sodipodi-0.dtd"
   xmlns:inkscape="http://www.inkscape.org/namespaces/inkscape"
   width="32"
   height="32"
   id="svg2"
   version="1.1"
   inkscape:version="0.48.4 r9939"
   sodipodi:docname="New document 1">
  <defs
     id="defs4">
    <clipPath
       clipPathUnits="userSpaceOnUse"
       id="clipPath3782">
      <rect
         style="fill:#000000;fill-opacity:1;stroke:#0000ff;stroke-width:1.13870955;stroke-opacity:1"
         id="rect3784"
         width="40.129147"
         height="9.8166475"
         x="-3.0556452"
         y="1019.7531" />
    </clipPath>
  </defs>
  <sodipodi:namedview
     id="base"
     pagecolor="#ffffff"
     bordercolor="#666666"
     borderopacity="1.0"
     inkscape:pageopacity="0.0"
     inkscape:pageshadow="2"
     inkscape:zoom="22.4"
     inkscape:cx="7.7927328"
     inkscape:cy="14.264523"
     inkscape:document-units="px"
     inkscape:current-layer="layer1"
     showgrid="false"
     inkscape:window-width="1920"
     inkscape:window-height="1145"
     inkscape:window-x="0"
     inkscape:window-y="27"
     inkscape:window-maximized="1" />
  <metadata
     id="metadata7">
    <rdf:RDF>
      <cc:Work
         rdf:about="">
        <dc:format>image/svg+xml</dc:format>
        <dc:type
           rdf:resource="http://purl.org/dc/dcmitype/StillImage" />
        <dc:title></dc:title>
      </cc:Work>
    </rdf:RDF>
  </metadata>
  <g
     inkscape:label="Layer 1"
     inkscape:groupmode="layer"
     id="layer1"
     transform="translate(0,-1020.3622)">
    <path
       style="fill:#000000;fill-opacity:1;stroke:#000000;stroke-width:0.96683502px;stroke-linecap:butt;stroke-linejoin:miter;stroke-opacity:1"
       d="m 0.5268157,1025.4982 0.8246576,0.043 -0.043403,1.5023 1.0416728,0.043 0.5642394,-1.116 1.0850758,-0.043 2.3871668,-0.043 0.1302091,1.0302 0.9114636,0.1716 0.043403,-4.7644 1.4757031,0.2575 -0.043403,3.8201 3.3854361,0 0.0434,-1.3734 1.56251,0 -0.0434,1.3734 1.171882,0.043 -0.0434,-0.9444 1.692719,0 0,-0.3862 2.734391,0.043 -0.08681,-0.3005 2.517376,-0.043 0,1.6739 0.477433,-0.043 0,-5.2795 0.347224,-0.1288 -0.08681,-0.5151 1.388899,-0.1288 0.564239,0.3864 0,0.4292 0.130208,0.086 0.08681,5.5371 1.519105,0 0.08681,-1.7599 3.42884,-0.086 0.0434,1.3306 1.692719,0.043 -0.0434,11.0312 -30.9897644,-0.086 z"
       id="path3004"
       inkscape:connector-curvature="0"
       clip-path="url(#clipPath3782)"
       transform="matrix(0.9866171,0,0,2.0713626,0.21412635,-1090.5448)" />
    <rect
       style="fill:#f0f0ff;fill-rule:evenodd;stroke:none;fill-opacity:1"
       id="rect3006"
       width="32"
       height="10.562742"
       x="0"
       y="1041.7994" />
  </g>
</svg>
